<svg id="visual" viewBox="0 0 960 540" width="960" height="540" xmlns="http://www.w3.org/2000/svg" xmlns:xlink="http://www.w3.org/1999/xlink" version="1.1"><rect x="0" y="0" width="960" height="540" fill="#000000"></rect><path d="M0 332L22.8 341.7C45.7 351.3 91.3 370.7 137 371.2C182.7 371.7 228.3 353.3 274 353.5C319.7 353.7 365.3 372.3 411.2 370C457 367.7 503 344.3 548.8 341.5C594.7 338.7 640.3 356.3 686 364.3C731.7 372.3 777.3 370.7 823 372.5C868.7 374.3 914.3 379.7 937.2 382.3L960 385L960 541L937.2 541C914.3 541 868.7 541 823 541C777.3 541 731.7 541 686 541C640.3 541 594.7 541 548.8 541C503 541 457 541 411.2 541C365.3 541 319.7 541 274 541C228.3 541 182.7 541 137 541C91.3 541 45.7 541 22.8 541L0 541Z" fill="#0b0c11"></path><path d="M0 350L22.8 351.7C45.7 353.3 91.3 356.7 137 359.7C182.7 362.7 228.3 365.3 274 365.7C319.7 366 365.3 364 411.2 367.5C457 371 503 380 548.8 388.8C594.7 397.7 640.3 406.3 686 400.7C731.7 395 777.3 375 823 364.7C868.7 354.3 914.3 353.7 937.2 353.3L960 353L960 541L937.2 541C914.3 541 868.7 541 823 541C777.3 541 731.7 541 686 541C640.3 541 594.7 541 548.8 541C503 541 457 541 411.2 541C365.3 541 319.7 541 274 541C228.3 541 182.7 541 137 541C91.3 541 45.7 541 22.8 541L0 541Z" fill="#1e2234"></path><path d="M0 383L22.8 390.7C45.7 398.3 91.3 413.7 137 420.3C182.7 427 228.3 425 274 426.3C319.7 427.7 365.3 432.3 411.2 434.3C457 436.3 503 435.7 548.8 425.7C594.7 415.7 640.3 396.3 686 395.8C731.7 395.3 777.3 413.7 823 415.3C868.7 417 914.3 402 937.2 394.5L960 387L960 541L937.2 541C914.3 541 868.7 541 823 541C777.3 541 731.7 541 686 541C640.3 541 594.7 541 548.8 541C503 541 457 541 411.2 541C365.3 541 319.7 541 274 541C228.3 541 182.7 541 137 541C91.3 541 45.7 541 22.8 541L0 541Z" fill="#31365a"></path><path d="M0 410L22.8 408.3C45.7 406.7 91.3 403.3 137 405.7C182.7 408 228.3 416 274 424.7C319.7 433.3 365.3 442.7 411.2 442C457 441.3 503 430.7 548.8 424.3C594.7 418 640.3 416 686 421.2C731.7 426.3 777.3 438.7 823 437.3C868.7 436 914.3 421 937.2 413.5L960 406L960 541L937.2 541C914.3 541 868.7 541 823 541C777.3 541 731.7 541 686 541C640.3 541 594.7 541 548.8 541C503 541 457 541 411.2 541C365.3 541 319.7 541 274 541C228.3 541 182.7 541 137 541C91.3 541 45.7 541 22.8 541L0 541Z" fill="#484a82"></path><path d="M0 453L22.8 456.2C45.7 459.3 91.3 465.7 137 464.7C182.7 463.7 228.3 455.3 274 449.2C319.7 443 365.3 439 411.2 444.3C457 449.7 503 464.3 548.8 466.5C594.7 468.7 640.3 458.3 686 457.5C731.7 456.7 777.3 465.3 823 463.3C868.7 461.3 914.3 448.7 937.2 442.3L960 436L960 541L937.2 541C914.3 541 868.7 541 823 541C777.3 541 731.7 541 686 541C640.3 541 594.7 541 548.8 541C503 541 457 541 411.2 541C365.3 541 319.7 541 274 541C228.3 541 182.7 541 137 541C91.3 541 45.7 541 22.8 541L0 541Z" fill="#645fab"></path><path d="M0 476L22.8 477.2C45.7 478.3 91.3 480.7 137 479.3C182.7 478 228.3 473 274 469.3C319.7 465.7 365.3 463.3 411.2 468.7C457 474 503 487 548.8 493.5C594.7 500 640.3 500 686 495.3C731.7 490.7 777.3 481.3 823 478.3C868.7 475.3 914.3 478.7 937.2 480.3L960 482L960 541L937.2 541C914.3 541 868.7 541 823 541C777.3 541 731.7 541 686 541C640.3 541 594.7 541 548.8 541C503 541 457 541 411.2 541C365.3 541 319.7 541 274 541C228.3 541 182.7 541 137 541C91.3 541 45.7 541 22.8 541L0 541Z" fill="#8673d5"></path><path d="M0 506L22.8 505.7C45.7 505.3 91.3 504.7 137 504C182.7 503.3 228.3 502.7 274 505.5C319.7 508.3 365.3 514.7 411.2 515.8C457 517 503 513 548.8 511.3C594.7 509.7 640.3 510.3 686 511.8C731.7 513.3 777.3 515.7 823 515C868.7 514.3 914.3 510.7 937.2 508.8L960 507L960 541L937.2 541C914.3 541 868.7 541 823 541C777.3 541 731.7 541 686 541C640.3 541 594.7 541 548.8 541C503 541 457 541 411.2 541C365.3 541 319.7 541 274 541C228.3 541 182.7 541 137 541C91.3 541 45.7 541 22.8 541L0 541Z" fill="#ac87ff"></path></svg>